<?xml version="1.0" encoding="utf-8"?>
<!-- Generator: Adobe Illustrator 16.0.0, SVG Export Plug-In . SVG Version: 6.00 Build 0)  -->
<!DOCTYPE svg PUBLIC "-//W3C//DTD SVG 1.1//EN" "http://www.w3.org/Graphics/SVG/1.1/DTD/svg11.dtd">
<svg version="1.1" id="Lager_1" xmlns="http://www.w3.org/2000/svg" xmlns:xlink="http://www.w3.org/1999/xlink" x="0px" y="0px"
	 width="212.125px" height="69.25px" viewBox="-77.875 -4.625 212.125 69.25" enable-background="new -77.875 -4.625 212.125 69.25"
	 xml:space="preserve">
<title>4A6D3FB7-88EC-4BD7-BAA8-6570EFFA4BA1</title>
<path id="Fill-1" fill="#FF8303" d="M-72.663,35.288c0,3.524,2.92,6.45,6.445,6.45c3.525,0,6.445-2.926,6.445-6.45
	c0-3.525-2.92-6.443-6.445-6.443C-69.742,28.845-72.663,31.665-72.663,35.288L-72.663,35.288z"/>
<polygon id="Fill-3" points="-63.801,-3.086 -76.995,-3.086 -76.995,2.051 -69.036,2.051 -69.036,25.017 -63.297,25.017 
	-63.297,-3.086 "/>
<path id="Fill-5" d="M57.765,9.303c-1.305,0.807-2.615,2.115-4.124,4.032C53.337,11.823,52.837,8.5,52.837,8.5H47.19l0.105,0.606
	c0.804,4.328,1.312,8.861,1.312,13.394v18.629h5.738v-13.8c0-2.411,0.395-4.73,1.205-6.944c0.811-2.217,1.918-4.033,3.327-5.439
	c1.305-1.311,2.616-2.016,3.821-2.016c0.804,0,1.312,0.303,1.614,0.807c0.304,0.402,0.606,1.509,0.705,4.127l0.105,1.815h0.501
	h5.237v-0.507c-0.204-3.825-0.909-6.648-2.114-8.456c-1.312-1.815-3.222-2.824-5.845-2.824C60.993,7.893,59.273,8.295,57.765,9.303"
	/>
<path id="Fill-7" d="M82.847,13.131c-0.197-1.41-0.704-4.631-0.704-4.631h-5.64l0.099,0.606c0.909,4.529,1.409,9.767,1.409,15.608
	v16.415h5.738V27.435c0-4.332,0.804-7.959,2.524-10.574c1.607-2.623,3.623-3.828,6.14-3.828c1.107,0,1.918,0.402,2.426,1.308
	c0.5,1.008,0.804,2.82,0.804,5.438v21.35h5.731v-22.76c0-3.324-0.698-5.844-2.207-7.755c-1.516-1.91-3.524-2.82-6.147-2.82
	C89.093,7.893,85.667,9.606,82.847,13.131"/>
<path id="Fill-9" d="M-39.124,12.93c2.015,0,3.624,0.807,4.937,2.316c1.209,1.508,2.013,3.627,2.316,6.246h-14.806
	c0.303-2.418,1.108-4.533,2.418-6.144C-42.852,13.737-41.14,12.93-39.124,12.93 M-48.893,12.525
	c-2.52,3.123-3.728,7.254-3.728,12.393c0,5.034,1.208,9.165,3.627,12.188c2.417,3.018,5.839,4.533,9.97,4.533
	c3.828,0,8.06-1.212,12.289-3.528l0.402-0.201l-2.317-4.935l-0.504,0.303c-2.115,1.304-3.927,2.108-5.337,2.616
	c-1.412,0.504-2.82,0.705-4.131,0.705c-5.134,0-7.753-3.222-8.157-9.968h20.747v-3.123c0-4.435-1.209-8.16-3.424-11.181
	c-2.315-3.024-5.438-4.533-9.267-4.533C-42.952,7.893-46.375,9.402-48.893,12.525"/>
<path id="Fill-11" d="M-11.022,33.48c-1.412-2.119-2.219-5.041-2.219-8.766c0-3.624,0.807-6.546,2.319-8.661
	c1.51-2.115,3.525-3.123,6.042-3.123c1.613,0,3.326,0.705,5.238,2.217v16.616c-0.804,1.717-1.611,2.922-2.619,3.726
	c-0.906,0.708-2.015,1.11-3.423,1.11C-7.901,36.6-9.614,35.591-11.022,33.48L-11.022,33.48z M5.595-3.086H0.357V9.205
	c-2.013-0.91-4.027-1.41-5.941-1.41c-3.828,0-7.051,1.607-9.568,4.73c-2.52,3.123-3.83,7.155-3.83,11.991
	c0,5.132,1.209,9.366,3.625,12.386c2.419,3.119,5.643,4.737,9.571,4.737c1.408,0,2.617-0.201,3.625-0.609
	c0.906-0.402,2.115-1.209,3.523-2.316c0.205,0.902,0.806,3.024,0.806,3.024l5.641-0.708l-0.204-0.603
	c-1.107-3.222-1.607-7.05-1.607-11.28V-3.086H5.595z"/>
<path id="Fill-13" d="M21.812,35.087c-0.804-1.103-1.213-2.52-1.213-4.226c0-2.115,0.508-3.828,1.516-5.041
	c1.001-1.206,2.313-1.812,4.025-1.812c1.41,0,3.222,0.402,5.245,1.308v6.553c-1.516,2.013-2.729,3.32-3.631,3.92
	c-0.909,0.609-1.91,0.909-3.024,0.909C23.524,36.6,22.516,36.099,21.812,35.087 M23.017,8.295c-1.304,0.303-3.123,0.91-5.534,1.815
	l-0.409,0.201l1.318,5.238l0.6-0.201c2.418-1.008,4.124-1.611,5.139-1.914c1.001-0.303,1.91-0.402,2.615-0.402
	c1.41,0,2.517,0.5,3.426,1.41c0.812,0.906,1.312,2.213,1.312,3.828v2.012c-2.122-0.807-4.131-1.209-5.844-1.209
	c-3.124,0-5.746,1.107-7.656,3.426c-2.016,2.214-3.024,5.136-3.024,8.558c0,3.225,0.91,5.844,2.721,7.854
	c1.819,2.02,4.23,3.126,7.254,3.126c1.614,0,3.123-0.3,4.328-0.909c1.008-0.501,2.122-1.209,3.123-2.217
	c0.303,1.008,0.902,3.229,0.902,3.229l5.548-0.501l-0.204-0.609c-0.909-3.021-1.41-5.943-1.41-8.463V18.672
	c0-3.024-1.008-5.64-2.918-7.656C32.386,9,29.869,7.893,26.95,7.893C25.64,7.893,24.328,7.996,23.017,8.295"/>
<path id="Fill-15" d="M116.086,35.087c-0.804-1.103-1.212-2.52-1.212-4.226c0-2.115,0.507-3.828,1.516-5.041
	c1.001-1.206,2.312-1.812,4.025-1.812c1.409,0,3.229,0.402,5.336,1.308v6.553c-1.509,2.013-2.714,3.32-3.623,3.92
	c-0.909,0.609-1.911,0.909-3.024,0.909C117.891,36.6,116.89,36.099,116.086,35.087 M117.292,8.295
	c-1.305,0.303-3.116,0.91-5.534,1.815l-0.402,0.201l1.305,5.238l0.606-0.201c2.418-1.008,4.124-1.611,5.139-1.914
	c1.009-0.303,1.911-0.402,2.615-0.402c1.41,0,2.518,0.5,3.427,1.41c0.804,0.906,1.304,2.213,1.304,3.828v2.012
	c-2.107-0.807-4.131-1.209-5.837-1.209c-3.123,0-5.738,1.107-7.755,3.426c-2.016,2.214-3.024,5.136-3.024,8.558
	c0,3.225,0.91,5.844,2.722,7.854c1.812,2.02,4.229,3.126,7.247,3.126c1.614,0,3.123-0.3,4.336-0.909
	c1.008-0.501,2.114-1.209,3.115-2.217c0.304,1.008,0.909,3.229,0.909,3.229l5.541-0.501l-0.197-0.609
	c-0.909-3.021-1.409-5.943-1.409-8.463V18.672c0-3.024-1.016-5.64-2.926-7.656c-1.918-2.016-4.428-3.123-7.354-3.123
	C119.914,7.893,118.603,7.996,117.292,8.295"/>
<path id="Fill-18" d="M-64.808,56.539c-0.201-0.3-0.603-0.905-1.41-0.905c-0.703,0-1.108,0.504-1.108,1.004
	c0,0.508,0.405,0.811,1.408,1.012c1.008,0.304,1.613,0.508,2.016,0.909c0.404,0.402,0.604,1.104,0.604,1.607
	c0,1.012-0.805,2.422-2.82,2.422c-2.014,0-2.719-1.312-2.918-1.818l1.308-0.402c0.301,0.402,0.705,1.11,1.711,1.11
	c0.906,0,1.31-0.508,1.31-1.008c0-0.705-0.703-1.005-1.511-1.206c-0.907-0.204-2.619-0.705-2.619-2.421
	c0-1.509,1.31-2.313,2.619-2.313c0.808,0,1.511,0.3,2.015,0.705c0.301,0.3,0.504,0.5,0.604,0.804L-64.808,56.539z"/>
<polygon id="Fill-21" points="-60.074,54.731 -58.461,60.166 -58.361,60.166 -56.75,54.731 -55.238,54.731 -57.658,62.588 
	-59.168,62.588 -61.584,54.731 "/>
<polygon id="Fill-23" points="-47.786,54.731 -47.786,56.039 -51.512,56.039 -51.512,57.851 -49.096,57.851 -49.096,59.06 
	-51.512,59.06 -51.512,61.178 -47.786,61.178 -47.786,62.588 -53.123,62.588 -53.123,54.731 "/>
<path id="Fill-25" d="M-45.368,54.731v7.856h1.613v-3.123h1.408l1.31,3.123h1.51l-1.41-3.43c0.707-0.3,1.512-0.698,1.512-1.91
	c0-0.61-0.205-1.315-0.705-1.813c-0.403-0.405-1.01-0.704-3.024-0.704H-45.368z M-42.548,56.039c0.303,0,1.51,0,1.51,1.008
	c0,0.804-0.705,1.11-1.51,1.11h-1.207v-2.118H-42.548z"/>
<polygon id="Fill-27" points="-36.808,62.588 -35.296,62.588 -35.296,54.731 -36.808,54.731 "/>
<path id="Fill-29" d="M-27.24,57.248c-0.1-0.405-0.5-1.414-1.709-1.414c-1.008,0-1.512,0.504-1.815,1.114
	c-0.302,0.603-0.302,1.308-0.302,1.61c0,1.305,0.302,1.809,0.504,2.108c0.299,0.405,0.906,0.708,1.408,0.708
	c0.504,0,1.108-0.197,1.413-0.605c0.4-0.402,0.5-0.702,0.5-1.107h-2.014V58.46h3.324v4.029h-1.209v-1.012
	c-0.703,0.701-1.41,1.11-2.416,1.11s-1.914-0.508-2.316-1.11c-0.405-0.508-0.807-1.312-0.807-2.82c0-1.311,0.301-2.418,0.908-3.122
	c0.705-0.804,1.713-1.104,2.617-1.104c1.108,0,1.813,0.398,2.319,0.804c0.502,0.5,0.701,1.004,0.803,1.402L-27.24,57.248z"/>
<polygon id="Fill-30" points="-17.972,54.731 -17.972,56.039 -21.701,56.039 -21.701,57.851 -19.283,57.851 -19.283,59.06 
	-21.701,59.06 -21.701,61.178 -17.972,61.178 -17.972,62.588 -23.312,62.588 -23.312,54.731 "/>
<path id="Fill-31" d="M-11.628,56.539c-0.199-0.3-0.601-0.905-1.408-0.905c-0.707,0-1.109,0.504-1.109,1.004
	c0,0.508,0.402,0.811,1.408,1.012c1.008,0.304,1.611,0.508,2.016,0.909c0.402,0.402,0.604,1.104,0.604,1.607
	c0,1.012-0.805,2.422-2.82,2.422c-2.014,0-2.721-1.312-2.922-1.818l1.31-0.402c0.303,0.402,0.707,1.11,1.713,1.11
	c0.906,0,1.308-0.508,1.308-1.008c0-0.705-0.701-1.005-1.508-1.206c-0.906-0.204-2.621-0.705-2.621-2.421
	c0-1.509,1.308-2.313,2.621-2.313c0.807,0,1.508,0.3,2.014,0.705c0.301,0.3,0.502,0.5,0.603,0.804L-11.628,56.539z"/>
<path id="Fill-32" d="M1.163,57.146c-0.302-1.106-1.008-1.312-1.511-1.312c-1.512,0-1.711,2.017-1.711,2.926
	c0,1.308,0.504,2.615,1.612,2.615c0.199,0,1.208,0,1.709-1.406l1.414,0.398c-0.102,0.402-0.204,0.811-0.606,1.312
	c-0.402,0.606-1.209,1.11-2.418,1.11c-1.512,0-3.422-0.91-3.422-3.931c0-2.819,1.611-4.229,3.422-4.229
	c2.115,0,2.72,1.809,2.82,2.115L1.163,57.146z"/>
<polygon id="Fill-33" points="6.605,54.731 6.605,57.851 9.623,57.851 9.623,54.731 11.138,54.731 11.138,62.588 9.623,62.588 
	9.623,59.158 6.605,59.158 6.605,62.588 5.091,62.588 5.091,54.731 "/>
<polygon id="Fill-34" points="19.294,54.731 19.294,56.039 15.565,56.039 15.565,57.851 18.082,57.851 18.082,59.06 15.565,59.06 
	15.565,61.178 19.294,61.178 19.294,62.588 14.057,62.588 14.057,54.731 "/>
<polygon id="Fill-35" points="26.647,54.731 26.647,56.039 23.32,56.039 23.32,58.157 25.435,58.157 25.435,59.465 23.32,59.465 
	23.32,62.588 21.812,62.588 21.812,54.731 "/>
<path id="Fill-36" d="M32.894,56.539c-0.205-0.3-0.606-0.905-1.41-0.905c-0.712,0-1.114,0.504-1.114,1.004
	c0,0.508,0.402,0.811,1.417,1.012c1.002,0.304,1.607,0.508,2.01,0.909c0.401,0.402,0.606,1.104,0.606,1.607
	c0,1.012-0.812,2.422-2.82,2.422c-2.016,0-2.721-1.312-2.926-1.818l1.417-0.501c0.296,0.398,0.698,1.106,1.713,1.106
	c0.902,0,1.305-0.504,1.305-1.008c0-0.705-0.705-1.005-1.509-1.209c-0.909-0.197-2.615-0.698-2.615-2.414
	c0-1.509,1.304-2.313,2.615-2.313c0.804,0,1.509,0.3,2.009,0.701c0.304,0.303,0.508,0.501,0.606,0.8L32.894,56.539z"/>
<path id="Fill-37" d="M39.845,54.53c-1.622,0-3.328,1.104-3.328,4.127c0,2.919,1.706,4.033,3.525,4.033
	c2.213,0,3.426-1.513,3.426-4.033C43.468,56.138,42.255,54.53,39.845,54.53 M40.042,55.933c0.204,0,0.606,0,1.106,0.405
	c0.6,0.505,0.804,1.312,0.804,2.319c0,0.501,0,2.718-1.812,2.718c-1.918,0-1.918-2.217-1.918-2.718
	C38.124,57.851,38.329,55.933,40.042,55.933"/>
<path id="Fill-38" d="M45.984,54.731v7.856h1.509v-3.123h1.41l1.311,3.123h1.509l-1.409-3.43c0.704-0.3,1.516-0.698,1.516-1.91
	c0-0.61-0.205-1.315-0.705-1.813c-0.409-0.405-1.009-0.704-3.024-0.704H45.984z M48.706,56.039c0.296,0,1.508,0,1.508,1.008
	c0,0.804-0.704,1.11-1.508,1.11h-1.213v-2.118H48.706z"/>
<path id="Fill-39" d="M59.379,57.248c-0.105-0.405-0.501-1.414-1.812-1.414c-1.001,0-1.516,0.504-1.813,1.114
	c-0.303,0.603-0.303,1.308-0.303,1.61c0,1.305,0.303,1.809,0.501,2.108c0.31,0.405,0.909,0.708,1.417,0.708
	c0.5,0,1.1-0.197,1.402-0.605c0.402-0.402,0.501-0.702,0.501-1.107h-2.01V58.46h3.328v4.029h-1.213v-1.012
	c-0.705,0.701-1.41,1.11-2.418,1.11s-1.918-0.508-2.319-1.11c-0.402-0.508-0.804-1.312-0.804-2.82c0-1.311,0.303-2.418,0.902-3.122
	c0.712-0.804,1.72-1.104,2.63-1.104c1.1,0,1.805,0.398,2.312,0.804c0.501,0.5,0.705,1.004,0.812,1.402L59.379,57.248z"/>
<path id="Fill-40" d="M65.124,54.731l-2.523,7.856h1.516l0.606-1.818h2.51l0.613,1.818h1.509l-2.524-7.856H65.124z M66.83,59.563
	h-1.812l0.909-2.721l0,0L66.83,59.563z"/>
<polygon id="Fill-41" points="73.182,54.731 76.298,59.969 76.403,59.969 76.403,54.731 77.912,54.731 77.912,62.588 76.403,62.588 
	73.083,57.146 73.083,57.146 73.083,62.588 71.462,62.588 71.462,54.731 "/>
<polygon id="Fill-42" points="80.937,62.588 82.445,62.588 82.445,54.731 80.937,54.731 "/>
<path id="Fill-43" d="M89.396,56.539c-0.205-0.3-0.613-0.905-1.417-0.905c-0.698,0-1.1,0.504-1.1,1.004
	c0,0.508,0.401,0.811,1.402,1.012c1.008,0.304,1.614,0.508,2.017,0.909c0.408,0.402,0.606,1.104,0.606,1.607
	c0,1.012-0.804,2.422-2.82,2.422c-2.009,0-2.721-1.312-2.919-1.818l1.41-0.501c0.304,0.398,0.705,1.106,1.706,1.106
	c0.909,0,1.312-0.504,1.312-1.008c0-0.705-0.698-1.005-1.509-1.209c-0.909-0.197-2.622-0.698-2.622-2.414
	c0-1.509,1.311-2.313,2.622-2.313c0.811,0,1.509,0.3,2.017,0.701c0.303,0.303,0.507,0.501,0.605,0.8L89.396,56.539z"/>
<path id="Fill-44" d="M95.233,54.731l-2.517,7.856h1.516l0.606-1.818h2.517l0.599,1.818h1.516l-2.523-7.856H95.233z M96.946,59.563
	h-1.713l0.909-2.721l0,0L96.946,59.563z"/>
<polygon id="Fill-45" points="106.118,54.731 106.118,56.039 103.897,56.039 103.897,62.588 102.389,62.588 102.389,56.039 
	100.168,56.039 100.168,54.731 "/>
<polygon id="Fill-46" points="108.635,62.588 110.144,62.588 110.144,54.731 108.635,54.731 "/>
<path id="Fill-47" d="M116.086,54.53c-1.614,0-3.327,1.104-3.327,4.127c0,2.919,1.713,4.033,3.524,4.033
	c2.221,0,3.434-1.513,3.434-4.033C119.717,56.138,118.405,54.53,116.086,54.53 M116.185,55.933c0.205,0,0.606,0,1.107,0.405
	c0.599,0.505,0.804,1.312,0.804,2.319c0,0.501,0,2.718-1.813,2.718c-1.91,0-1.91-2.217-1.91-2.718
	C114.373,57.851,114.472,55.933,116.185,55.933"/>
<polygon id="Fill-48" points="123.742,54.731 126.964,59.969 126.964,59.969 126.964,54.731 128.578,54.731 128.578,62.588 
	126.964,62.588 123.742,57.146 123.644,57.146 123.644,62.588 122.128,62.588 122.128,54.731 "/>
<desc>Created with sketchtool.</desc>
</svg>
